<?xml version="1.0" encoding="UTF-8"?>
<!-- Generator: Adobe Illustrator 22.0.1, SVG Export Plug-In . SVG Version: 6.00 Build 0)  -->
<svg xmlns="http://www.w3.org/2000/svg" xmlns:xlink="http://www.w3.org/1999/xlink" xmlns:dc="http://purl.org/dc/elements/1.1/" xmlns:cc="http://creativecommons.org/ns#" xmlns:rdf="http://www.w3.org/1999/02/22-rdf-syntax-ns#" version="1.1" id="designs" x="0px" y="0px" width="32px" height="32px" viewBox="0 0 32 32" style="enable-background:new 0 0 32 32;" xml:space="preserve">
<title property="dc:title">to fight</title><desc property="dc:description">An icon for "fight" from the Science and Fiction series on to [icon]. Downloaded from http://www.toicon.com/icons/science-and-fiction_fight by 181.59.57.126 on 2018-02-07. Licensed CC-BY, see http://toicon.com/license/ for details.</desc>
<path class="scienceandfiction_twee" d="M22,22h-1V2h-1v20h-1v8h3v-6h0.999v-1H22V22z M21,29h-1v-1h1V29z M21,27h-1v-1h1V27z M20,25  v-2h1v2H20z" style="fill: #CC2954;"/>
<path class="scienceandfiction_een" d="M10,2v5H9v1h1v3h1v19h0.999V11h1V2H10z M12,10h-1.001V8H12V10z M10.999,7V3H12v4H10.999z" style="fill: #2B4099;"/>
<metadata><work rdf:about=""><format>image/svg+xml</format><type rdf:resource="http://purl.org/dc/dcmitype/StillImage"/><license rdf:resource="http://creativecommons.org/licenses/by/4.0/"/><attributionname>Kamila Piątkowska</attributionname><attributionurl>http://www.toicon.com/icons/science-and-fiction_fight</attributionurl></work></metadata></svg>
